# 3ds Max Wavefront OBJ Exporter v0.97b - (c)2007 guruware
# File Created: 09.03.2017 11:06:05

#
# object boat
#

v  0.0147 1.8288 4.0812
v  0.0172 1.7198 4.0746
v  0.1650 1.7779 3.1738
v  0.1624 1.8869 3.1804
v  -4.1123 1.7254 4.1659
v  -4.1097 1.6165 4.1593
v  -4.2959 1.7752 3.2712
v  -4.2933 1.6663 3.2646
v  -4.2747 2.0860 -1.8366
v  -4.2721 1.9755 -1.8433
v  -4.3714 1.9174 -0.9232
v  -4.3740 2.0279 -0.9166
v  -0.1475 2.1894 -1.9216
v  -0.1448 2.0789 -1.9282
v  -0.0165 2.1370 -1.0051
v  -0.0138 2.0265 -1.0118
v  -2.1497 -0.1671 -1.9627
v  -3.9842 0.4339 -1.8864
v  -3.3935 0.6225 -3.9443
v  -2.2252 0.6903 -4.6098
v  -1.9709 2.0238 9.4663
v  -2.1259 2.0181 9.4694
v  -2.0777 0.0403 8.3296
v  -1.9446 0.0437 8.3268
v  -4.3473 2.4577 -2.4368
v  -3.6582 2.6481 -4.8368
v  -3.0518 -0.0782 6.2875
v  -1.9714 -0.5940 6.2328
v  -3.8567 0.0015 4.2537
v  -2.0132 -0.6058 4.1768
v  -4.1786 0.1086 2.2109
v  -2.0576 -0.5036 2.1276
v  -4.2242 0.2568 0.1645
v  -2.1033 -0.3505 0.0815
v  -3.2637 1.9893 7.0963
v  -4.1989 1.9646 4.7191
v  -4.5741 2.0885 2.3385
v  -4.6271 2.2592 -0.0463
v  -2.2876 2.7028 -5.1934
v  -1.0288 0.6817 -3.9926
v  -0.3458 0.5250 -1.9608
v  -1.8115 0.0470 8.3241
v  -1.8158 2.0259 9.4630
v  -0.9025 2.7171 -4.8931
v  -0.1073 2.5639 -2.5235
v  -0.9169 -0.0248 6.2439
v  -0.2008 0.0931 4.1790
v  0.0318 0.2141 2.1249
v  -0.0138 0.3623 0.0785
v  -0.7758 2.0516 7.0455
v  0.0615 2.0713 4.6320
v  0.3325 2.2114 2.2382
v  0.2795 2.3821 -0.1466
v  -2.0906 2.0322 9.1920
v  -1.9773 2.0371 9.1714
v  -1.9496 0.0801 8.1281
v  -2.0508 0.0741 8.1240
v  -3.3501 0.6379 -3.7428
v  -3.6004 2.6409 -4.5730
v  -4.2400 2.4516 -2.2982
v  -3.9081 0.4593 -1.7862
v  -3.1852 1.9957 6.8830
v  -2.9974 -0.0576 6.1400
v  -4.0999 1.9729 4.5667
v  -3.7854 0.0376 4.1442
v  -4.4580 2.0948 2.2888
v  -4.0961 0.1437 2.1766
v  -4.1402 0.2873 0.1995
v  -4.5090 2.2594 0.0008
v  -2.2215 0.7071 -4.4078
v  -2.2813 2.6917 -4.8983
v  -1.8631 2.0379 9.1873
v  -1.8484 0.0792 8.1199
v  -0.2084 2.5526 -2.3806
v  -0.9491 2.7074 -4.6272
v  -1.0647 0.6951 -3.7896
v  -0.4190 0.5467 -1.8575
v  -0.8632 2.0539 6.8356
v  -0.9782 -0.0070 6.0987
v  -0.0439 2.0744 4.4837
v  -0.2781 0.1254 4.0725
v  0.2143 2.2118 2.1933
v  -0.0538 0.2449 2.0940
v  0.1636 2.3765 -0.0947
v  -0.0977 0.3886 0.1169
v  -2.1633 0.4083 -1.9279
v  -2.2075 0.6686 -3.7665
v  -1.9851 -0.0182 6.2677
v  -2.0269 -0.0302 4.2116
v  -2.0713 0.0719 2.1625
v  -2.1170 0.2249 0.1164
# 91 vertices

vn 0.9866 0.0136 0.1627
vn 0.0220 -0.0599 0.9980
vn -0.9794 -0.0354 0.1990
vn -0.0218 0.0599 -0.9980
vn 0.0238 -0.9979 -0.0605
vn -0.0238 0.9979 0.0605
vn -0.9940 -0.0171 -0.1084
vn -0.0220 0.0599 -0.9980
vn 0.9897 0.0320 -0.1396
vn 0.0218 -0.0600 0.9980
vn -0.3131 -0.9334 -0.1754
vn -0.1177 -0.9457 -0.3030
vn 0.0353 -0.4984 0.8663
vn 0.0302 -0.4982 0.8665
vn -0.9261 -0.2468 -0.2855
vn -0.9259 -0.2445 -0.2882
vn -0.4075 -0.8796 0.2455
vn 0.0300 -0.9563 0.2908
vn -0.3085 -0.9474 0.0850
vn -0.4302 -0.9026 0.0139
vn -0.2776 -0.9607 -0.0066
vn -0.3141 -0.9485 -0.0405
vn -0.2770 -0.9588 -0.0633
vn -0.2791 -0.9580 -0.0654
vn -0.2776 -0.9538 -0.1148
vn -0.3133 -0.9465 -0.0778
vn -0.8687 -0.2631 0.4197
vn -0.8665 -0.2564 0.4283
vn -0.9042 -0.2328 0.3581
vn -0.9057 -0.2406 0.3490
vn -0.9689 -0.2026 0.1422
vn -0.9689 -0.2027 0.1421
vn -0.9805 -0.1965 0.0077
vn -0.9805 -0.1963 0.0076
vn -0.9690 -0.2094 -0.1308
vn -0.9691 -0.2088 -0.1314
vn -0.2315 -0.2776 -0.9324
vn -0.4333 -0.4102 -0.8025
vn 0.1524 -0.9389 -0.3085
vn 0.3519 -0.9167 -0.1890
vn 0.0251 -0.4986 0.8665
vn 0.9248 -0.2004 -0.3233
vn 0.9244 -0.1981 -0.3260
vn 0.4607 -0.8579 0.2277
vn 0.0298 -0.9563 0.2908
vn 0.3588 -0.9307 0.0713
vn 0.4750 -0.8800 -0.0046
vn 0.3248 -0.9456 -0.0189
vn 0.3593 -0.9316 -0.0542
vn 0.3218 -0.9438 -0.0755
vn 0.3238 -0.9429 -0.0778
vn 0.3568 -0.9297 -0.0915
vn 0.3201 -0.9388 -0.1270
vn 0.8950 -0.2122 0.3922
vn 0.8972 -0.2188 0.3836
vn 0.9301 -0.1946 0.3115
vn 0.9286 -0.1869 0.3206
vn 0.9828 -0.1538 0.1022
vn 0.9828 -0.1537 0.1023
vn 0.9886 -0.1471 -0.0325
vn 0.9886 -0.1470 -0.0326
vn 0.9722 -0.1608 -0.1705
vn 0.9721 -0.1602 -0.1711
vn 0.2069 -0.2666 -0.9414
vn 0.4202 -0.3888 -0.8199
vn -0.1785 0.4609 -0.8693
vn 0.0070 0.4789 -0.8778
vn 0.9310 0.2329 0.2811
vn 0.9305 0.2286 0.2862
vn 0.8743 0.2460 -0.4184
vn 0.8709 0.2357 -0.4312
vn 0.9079 0.2135 -0.3606
vn 0.9101 0.2240 -0.3487
vn 0.9716 0.1890 -0.1426
vn 0.9716 0.1885 -0.1432
vn 0.9831 0.1830 -0.0088
vn 0.9831 0.1829 -0.0087
vn 0.9721 0.1954 0.1301
vn 0.9721 0.1950 0.1305
vn 0.2237 0.2402 0.9446
vn 0.4498 0.3894 0.8038
vn -0.0668 0.4771 -0.8763
vn 0.1195 0.4684 -0.8754
vn -0.9292 0.1863 0.3192
vn -0.9283 0.1820 0.3242
vn -0.8985 0.1914 -0.3950
vn -0.9019 0.2015 -0.3821
vn -0.9336 0.1778 -0.3110
vn -0.9315 0.1675 -0.3230
vn -0.9848 0.1395 -0.1032
vn -0.9848 0.1400 -0.1026
vn -0.9905 0.1336 0.0316
vn -0.9906 0.1334 0.0317
vn -0.9745 0.1466 0.1699
vn -0.9745 0.1462 0.1703
vn -0.1967 0.2297 0.9532
vn -0.4355 0.3672 0.8219
vn -0.0354 0.9983 0.0460
vn -0.0356 0.9983 0.0461
vn -0.0369 0.9967 0.0726
vn -0.1024 0.9935 0.0494
vn -0.1030 0.9940 0.0373
vn -0.0543 0.9985 0.0100
vn -0.0530 0.9985 0.0105
vn -0.0612 0.9980 0.0143
vn -0.0027 0.9986 0.0524
vn -0.0291 0.9979 0.0580
vn -0.0229 0.9971 0.0723
vn -0.0304 0.9969 0.0720
vn -0.0333 0.9963 0.0794
vn -0.0434 0.9960 0.0776
vn -0.0301 0.9990 0.0337
vn -0.0299 0.9988 0.0381
vn -0.0126 0.9989 0.0456
vn -0.0128 0.9989 0.0456
vn 0.0545 0.9974 0.0462
vn -0.0101 0.9974 0.0720
vn 0.0047 1.0000 0.0088
vn 0.0545 0.9979 0.0341
vn 0.0118 0.9998 0.0129
vn 0.0034 1.0000 0.0093
vn -0.0185 0.9982 0.0578
vn -0.0452 0.9976 0.0533
vn -0.0165 0.9973 0.0721
vn -0.0239 0.9971 0.0719
vn -0.0033 0.9970 0.0768
vn -0.0134 0.9968 0.0790
vn -0.0186 0.9991 0.0379
vn -0.0185 0.9993 0.0335
vn 0.0373 0.9941 0.1014
vn -0.0237 0.9898 0.1407
vn -0.0325 0.9982 -0.0508
vn -0.0570 0.9970 -0.0516
vn 0.0372 0.9988 0.0329
vn -0.0383 0.9993 -0.0051
vn 0.0357 0.9982 0.0482
vn 0.0366 0.9981 0.0489
vn 0.0358 0.9968 0.0716
vn 0.0338 0.9967 0.0738
vn 0.0344 0.9953 0.0902
vn 0.0363 0.9954 0.0885
vn -0.0202 0.9899 0.1406
vn -0.0828 0.9911 0.1038
vn -0.0196 0.9985 -0.0510
vn 0.0048 0.9986 -0.0528
vn -0.0858 0.9957 0.0355
vn -0.0120 0.9999 -0.0056
vn -0.0836 0.9952 0.0506
vn -0.0845 0.9951 0.0514
vn -0.0806 0.9938 0.0761
vn -0.0827 0.9938 0.0740
vn -0.0824 0.9924 0.0909
vn -0.0805 0.9924 0.0926
# 153 vertex normals

vt 0.7455 0.3447 0.0000
vt 0.7455 0.2787 0.0000
vt 0.1982 0.2787 0.0000
vt 0.1982 0.3447 0.0000
vt 0.8535 0.6797 0.0000
vt 0.8535 0.6618 0.0000
vt 0.1429 0.6618 0.0000
vt 0.1429 0.6797 0.0000
vt 0.2169 0.8847 0.0000
vt 0.6880 0.8847 0.0000
vt 0.6880 0.7968 0.0000
vt 0.2169 0.7968 0.0000
vt 0.8316 0.5172 0.0000
vt 0.1648 0.5172 0.0000
vt 0.1648 0.3986 0.0000
vt 0.8316 0.3986 0.0000
vt 0.2937 0.1824 0.0000
vt 0.2937 0.0875 0.0000
vt 0.2050 0.1207 0.0000
vt 0.2050 0.1824 0.0000
vt 0.9536 0.4387 0.0000
vt 0.9420 0.4387 0.0000
vt 0.9436 0.3169 0.0000
vt 0.9536 0.3169 0.0000
vt -0.1660 0.5451 0.0000
vt -0.4241 0.5451 0.0000
vt -0.3143 0.3340 0.0000
vt -0.0928 0.3340 0.0000
vt 0.7372 0.1754 0.0000
vt 0.6485 0.1267 0.0000
vt 0.6485 0.1824 0.0000
vt 0.7372 0.1824 0.0000
vt 0.5598 0.0870 0.0000
vt 0.5598 0.1824 0.0000
vt 0.4711 0.0725 0.0000
vt 0.4711 0.1824 0.0000
vt 0.3824 0.0725 0.0000
vt 0.3824 0.1824 0.0000
vt 1.0144 0.3340 0.0000
vt 1.1243 0.5451 0.0000
vt 0.8662 0.5451 0.0000
vt 0.7930 0.3340 0.0000
vt 0.6081 0.5451 0.0000
vt 0.5715 0.3340 0.0000
vt 0.3501 0.5451 0.0000
vt 0.3501 0.3340 0.0000
vt 0.0920 0.5451 0.0000
vt 0.1286 0.3340 0.0000
vt 1.1099 0.6410 0.0000
vt 0.8571 0.6410 0.0000
vt 0.8571 0.3436 0.0000
vt 1.0740 0.3436 0.0000
vt 0.2937 0.7968 0.0000
vt 0.2050 0.7968 0.0000
vt 0.2050 0.7351 0.0000
vt 0.2937 0.7019 0.0000
vt 0.9636 0.3169 0.0000
vt 0.9653 0.4387 0.0000
vt -0.2154 0.4143 0.0000
vt -0.3232 0.6215 0.0000
vt -0.0699 0.6215 0.0000
vt 0.0020 0.4143 0.0000
vt 0.6485 0.7968 0.0000
vt 0.6485 0.7411 0.0000
vt 0.7372 0.7898 0.0000
vt 0.7372 0.7968 0.0000
vt 0.5598 0.7968 0.0000
vt 0.5598 0.7014 0.0000
vt 0.4711 0.7968 0.0000
vt 0.4711 0.6870 0.0000
vt 0.3824 0.7968 0.0000
vt 0.3824 0.6870 0.0000
vt 1.0887 0.4143 0.0000
vt 0.8714 0.4143 0.0000
vt 0.9433 0.6215 0.0000
vt 1.1965 0.6215 0.0000
vt 0.6540 0.4143 0.0000
vt 0.6900 0.6215 0.0000
vt 0.4367 0.4143 0.0000
vt 0.4367 0.6215 0.0000
vt 0.2193 0.4143 0.0000
vt 0.1834 0.6215 0.0000
vt 0.6042 0.6410 0.0000
vt 0.6401 0.3436 0.0000
vt 0.8571 0.4416 0.0000
vt 0.8571 0.5431 0.0000
vt 0.9433 0.5431 0.0000
vt 0.9311 0.4416 0.0000
vt 0.0067 0.8811 0.0000
vt -0.2466 0.8811 0.0000
vt -0.1388 0.6739 0.0000
vt 0.0785 0.6739 0.0000
vt 1.0198 0.8811 0.0000
vt 0.9479 0.6739 0.0000
vt 1.1653 0.6739 0.0000
vt 1.2731 0.8811 0.0000
vt 0.7665 0.8811 0.0000
vt 0.7306 0.6739 0.0000
vt 0.5132 0.8811 0.0000
vt 0.5132 0.6739 0.0000
vt 0.2599 0.8811 0.0000
vt 0.2959 0.6739 0.0000
vt 0.7708 0.5431 0.0000
vt 0.7831 0.4416 0.0000
vt 1.0513 0.1507 0.0000
vt 1.0173 0.1490 0.0000
vt 1.0201 0.1334 0.0000
vt 1.0523 0.1292 0.0000
vt -0.3029 -0.2071 0.0000
vt -0.2877 -0.1921 0.0000
vt -0.5504 -0.1103 0.0000
vt -0.5797 -0.1187 0.0000
vt 0.7815 -0.0340 0.0000
vt 0.7567 -0.0237 0.0000
vt 0.5126 -0.1674 0.0000
vt 0.4948 -0.1543 0.0000
vt 0.2431 -0.2254 0.0000
vt 0.2369 -0.2097 0.0000
vt -0.0239 -0.2228 0.0000
vt -0.0287 -0.2391 0.0000
vt -0.5561 0.0718 0.0000
vt -0.5893 0.0702 0.0000
vt 1.0501 0.1722 0.0000
vt 1.0185 0.1649 0.0000
vt -0.3319 0.3747 0.0000
vt -0.5986 0.2593 0.0000
vt -0.5686 0.2536 0.0000
vt -0.3153 0.3612 0.0000
vt 0.7644 0.3092 0.0000
vt 0.7407 0.2965 0.0000
vt 0.4834 0.4167 0.0000
vt 0.4670 0.4018 0.0000
vt 0.2095 0.4474 0.0000
vt 0.2049 0.4311 0.0000
vt -0.0623 0.4339 0.0000
vt -0.0559 0.4182 0.0000
vt 1.6186 0.9702 0.0000
vt 1.2378 1.2400 0.0000
vt 1.2574 0.4580 0.0000
vt 1.6187 0.4580 0.0000
vt -0.3445 0.4580 0.0000
vt -0.3157 0.9106 0.0000
vt -0.7046 0.5034 0.0000
vt -0.7058 0.4580 0.0000
vt 0.0560 0.4580 0.0000
vt 0.0774 1.2441 0.0000
vt 0.4564 0.4580 0.0000
vt 0.4632 1.3640 0.0000
vt 0.8501 1.3640 0.0000
vt 0.8569 0.4580 0.0000
vt 1.6186 -0.0542 0.0000
vt 1.2378 -0.3240 0.0000
vt -0.7046 0.4126 0.0000
vt -0.3157 0.0054 0.0000
vt 0.0774 -0.3281 0.0000
vt 0.4632 -0.4480 0.0000
vt 0.8501 -0.4480 0.0000
# 157 texture coords

o boat
g boat
s off
f 1/1/1 2/2/1 3/3/1 
f 3/3/1 4/4/1 1/1/1 
f 5/5/2 6/6/2 2/7/2 
f 2/7/2 1/8/2 5/5/2 
f 7/4/3 8/3/3 6/2/3 
f 6/2/3 5/1/3 7/4/3 
f 4/8/4 3/7/4 8/6/4 
f 8/6/4 7/5/4 4/8/4 
f 2/9/5 6/10/5 8/11/5 
f 8/11/5 3/12/5 2/9/5 
f 5/13/6 1/14/6 4/15/6 
f 4/15/6 7/16/6 5/13/6 
f 9/1/7 10/2/7 11/3/7 
f 11/3/7 12/4/7 9/1/7 
f 13/5/8 14/6/8 10/7/8 
f 10/7/8 9/8/8 13/5/8 
f 15/4/9 16/3/9 14/2/9 
f 14/2/9 13/1/9 15/4/9 
f 12/8/10 11/7/10 16/6/10 
f 16/6/10 15/5/10 12/8/10 
f 10/9/5 14/10/5 16/11/5 
f 16/11/5 11/12/5 10/9/5 
f 13/13/6 9/14/6 12/15/6 
f 12/15/6 15/16/6 13/13/6 
f 17/17/11 18/18/11 19/19/11 
f 19/19/12 20/20/12 17/17/12 
f 21/21/13 22/22/13 23/23/13 
f 23/23/14 24/24/14 21/21/14 
f 25/25/15 26/26/15 19/27/15 
f 19/27/16 18/28/16 25/25/16 
f 23/29/17 27/30/17 28/31/17 
f 28/31/18 24/32/18 23/29/18 
f 27/30/19 29/33/19 30/34/19 
f 30/34/20 28/31/20 27/30/20 
f 29/33/21 31/35/21 32/36/21 
f 32/36/22 30/34/22 29/33/22 
f 31/35/23 33/37/23 34/38/23 
f 34/38/24 32/36/24 31/35/24 
f 34/38/25 33/37/25 18/18/25 
f 18/18/26 17/17/26 34/38/26 
f 23/39/27 22/40/27 35/41/27 
f 35/41/28 27/42/28 23/39/28 
f 27/42/29 35/41/29 36/43/29 
f 36/43/30 29/44/30 27/42/30 
f 29/44/31 36/43/31 37/45/31 
f 37/45/32 31/46/32 29/44/32 
f 37/45/33 38/47/33 33/48/33 
f 33/48/34 31/46/34 37/45/34 
f 38/47/35 25/25/35 18/28/35 
f 18/28/36 33/48/36 38/47/36 
f 26/49/37 39/50/37 20/51/37 
f 20/51/38 19/52/38 26/49/38 
f 17/53/39 20/54/39 40/55/39 
f 40/55/40 41/56/40 17/53/40 
f 42/57/41 43/58/41 21/21/41 
f 21/21/14 24/24/14 42/57/14 
f 40/59/42 44/60/42 45/61/42 
f 45/61/43 41/62/43 40/59/43 
f 28/63/44 46/64/44 42/65/44 
f 42/65/45 24/66/45 28/63/45 
f 30/67/46 47/68/46 46/64/46 
f 46/64/47 28/63/47 30/67/47 
f 32/69/48 48/70/48 47/68/48 
f 47/68/49 30/67/49 32/69/49 
f 34/71/50 49/72/50 48/70/50 
f 48/70/51 32/69/51 34/71/51 
f 34/71/52 17/53/52 41/56/52 
f 41/56/53 49/72/53 34/71/53 
f 42/73/54 46/74/54 50/75/54 
f 50/75/55 43/76/55 42/73/55 
f 46/74/56 47/77/56 51/78/56 
f 51/78/57 50/75/57 46/74/57 
f 47/77/58 48/79/58 52/80/58 
f 52/80/59 51/78/59 47/77/59 
f 49/81/60 53/82/60 52/80/60 
f 52/80/61 48/79/61 49/81/61 
f 41/62/62 45/61/62 53/82/62 
f 53/82/63 49/81/63 41/62/63 
f 20/51/64 39/50/64 44/83/64 
f 44/83/65 40/84/65 20/51/65 
f 54/22/66 55/21/66 56/24/66 
f 56/24/67 57/23/67 54/22/67 
f 58/27/68 59/26/68 60/25/68 
f 60/25/69 61/28/69 58/27/69 
f 62/41/70 54/40/70 57/39/70 
f 57/39/71 63/42/71 62/41/71 
f 64/43/72 62/41/72 63/42/72 
f 63/42/73 65/44/73 64/43/73 
f 66/45/74 64/43/74 65/44/74 
f 65/44/75 67/46/75 66/45/75 
f 68/48/76 69/47/76 66/45/76 
f 66/45/77 67/46/77 68/48/77 
f 61/28/78 60/25/78 69/47/78 
f 69/47/79 68/48/79 61/28/79 
f 70/85/80 71/86/80 59/87/80 
f 59/87/81 58/88/81 70/85/81 
f 72/58/82 73/57/82 56/24/82 
f 56/24/83 55/21/83 72/58/83 
f 74/89/84 75/90/84 76/91/84 
f 76/91/85 77/92/85 74/89/85 
f 78/93/86 79/94/86 73/95/86 
f 73/95/87 72/96/87 78/93/87 
f 80/97/88 81/98/88 79/94/88 
f 79/94/89 78/93/89 80/97/89 
f 82/99/90 83/100/90 81/98/90 
f 81/98/91 80/97/91 82/99/91 
f 82/99/92 84/101/92 85/102/92 
f 85/102/93 83/100/93 82/99/93 
f 84/101/94 74/89/94 77/92/94 
f 77/92/95 85/102/95 84/101/95 
f 75/103/96 71/86/96 70/85/96 
f 70/85/97 76/104/97 75/103/97 
f 21/105/98 55/106/98 54/107/98 
f 54/107/99 22/108/99 21/105/99 
f 25/109/100 60/110/100 59/111/100 
f 59/111/101 26/112/101 25/109/101 
f 35/113/102 22/108/102 54/107/102 
f 54/107/103 62/114/103 35/113/103 
f 36/115/104 35/113/104 62/114/104 
f 62/114/105 64/116/105 36/115/105 
f 37/117/106 36/115/106 64/116/106 
f 64/116/107 66/118/107 37/117/107 
f 37/117/108 66/118/108 69/119/108 
f 69/119/109 38/120/109 37/117/109 
f 38/120/110 69/119/110 60/110/110 
f 60/110/111 25/109/111 38/120/111 
f 26/112/112 59/111/112 71/121/112 
f 71/121/113 39/122/113 26/112/113 
f 21/105/114 43/123/114 72/124/114 
f 72/124/115 55/106/115 21/105/115 
f 45/125/116 44/126/116 75/127/116 
f 75/127/117 74/128/117 45/125/117 
f 50/129/118 78/130/118 72/124/118 
f 72/124/119 43/123/119 50/129/119 
f 51/131/120 80/132/120 78/130/120 
f 78/130/121 50/129/121 51/131/121 
f 52/133/122 82/134/122 80/132/122 
f 80/132/123 51/131/123 52/133/123 
f 53/135/124 84/136/124 82/134/124 
f 82/134/125 52/133/125 53/135/125 
f 53/135/126 45/125/126 74/128/126 
f 74/128/127 84/136/127 53/135/127 
f 44/126/128 39/122/128 71/121/128 
f 71/121/129 75/127/129 44/126/129 
f 58/137/130 61/138/130 86/139/130 
f 86/139/131 87/140/131 58/137/131 
f 88/141/132 63/142/132 57/143/132 
f 57/143/133 56/144/133 88/141/133 
f 89/145/134 65/146/134 63/142/134 
f 63/142/135 88/141/135 89/145/135 
f 90/147/136 67/148/136 65/146/136 
f 65/146/137 89/145/137 90/147/137 
f 68/149/138 67/148/138 90/147/138 
f 90/147/139 91/150/139 68/149/139 
f 61/138/140 68/149/140 91/150/140 
f 91/150/141 86/139/141 61/138/141 
f 76/151/142 87/140/142 86/139/142 
f 86/139/143 77/152/143 76/151/143 
f 73/153/144 79/154/144 88/141/144 
f 88/141/145 56/144/145 73/153/145 
f 79/154/146 81/155/146 89/145/146 
f 89/145/147 88/141/147 79/154/147 
f 81/155/148 83/156/148 90/147/148 
f 90/147/149 89/145/149 81/155/149 
f 85/157/150 91/150/150 90/147/150 
f 90/147/151 83/156/151 85/157/151 
f 77/152/152 86/139/152 91/150/152 
f 91/150/153 85/157/153 77/152/153 
# 168 faces

